<svg xmlns="http://www.w3.org/2000/svg" xmlns:xlink="http://www.w3.org/1999/xlink" width="13.555" height="13.551" viewBox="0 0 13.555 13.551"><defs><clipPath id="clip-path"><rect id="Retângulo_20" width="13.555" height="13.551" fill="#00939e" data-name="Retângulo 20"/></clipPath></defs><g id="Grupo_1636" data-name="Grupo 1636" transform="translate(0 -3.473)"><g id="Grupo_12" clip-path="url(#clip-path)" data-name="Grupo 12" transform="translate(0 3.473)"><path id="Caminho_10" fill="#00939e" d="M6.379,0h.794c.043.008.085.018.129.024.3.043.6.067.888.13A6.581,6.581,0,0,1,12.171,2.69,6.572,6.572,0,0,1,13.395,8.2a6.545,6.545,0,0,1-2.5,3.946,6.59,6.59,0,0,1-4.8,1.37,6.552,6.552,0,0,1-3.838-1.7A6.646,6.646,0,0,1,.105,7.943C.06,7.688.035,7.43,0,7.173V6.379c.011-.1.022-.191.033-.286a6.7,6.7,0,0,1,1.7-3.835A6.647,6.647,0,0,1,5.609.105C5.864.06,6.123.035,6.379,0m1.3,6.791c-.054.045-.1.076-.135.113Q6.426,8.021,5.308,9.139a.649.649,0,0,0-.224.435.566.566,0,0,0,1,.391Q7.457,8.591,8.83,7.213A.719.719,0,0,0,9,6.964a.578.578,0,0,0-.181-.644Q7.456,4.966,6.1,3.608a1.2,1.2,0,0,0-.108-.1.558.558,0,0,0-.868.233A.574.574,0,0,0,5.3,4.4Q6.43,5.532,7.561,6.666c.034.034.066.069.119.125" data-name="Caminho 10"/></g></g></svg>