<svg xmlns="http://www.w3.org/2000/svg" xmlns:xlink="http://www.w3.org/1999/xlink" id="Grupo_28" width="18.33" height="18.328" data-name="Grupo 28" viewBox="0 0 18.33 18.328"><defs><clipPath id="clip-path"><rect id="Retângulo_38" width="18.33" height="18.328" fill="#fff" data-name="Retângulo 38"/></clipPath></defs><g id="Grupo_27" clip-path="url(#clip-path)" data-name="Grupo 27"><path id="Caminho_31" fill="#fff" d="M0,252.377c.022-.054.046-.107.065-.161a1.148,1.148,0,0,1,1.238-.759,1.136,1.136,0,0,1,.984,1.105c.009.895,0,1.79,0,2.685v.2H16.038c0-.062,0-.124,0-.187,0-.895,0-1.79,0-2.685a1.132,1.132,0,0,1,.884-1.1,1.117,1.117,0,0,1,1.273.6,1.259,1.259,0,0,1,.126.514c.01,1.336.008,2.673,0,4.009a1.135,1.135,0,0,1-.865,1.114c-.034.009-.067.024-.1.036H.967a1.216,1.216,0,0,1-.765-.5,3.859,3.859,0,0,1-.2-.427v-4.439" data-name="Caminho 31" transform="translate(0 -239.419)"/><path id="Caminho_32" fill="#fff" d="M88.145,10.4l1.87-1.871c.1-.1.192-.2.292-.29a1.144,1.144,0,0,1,1.611.007,1.128,1.128,0,0,1,.016,1.6c-.69.71-1.4,1.4-2.1,2.1q-.974.975-1.949,1.948a1.151,1.151,0,0,1-1.777,0Q84.117,11.9,82.126,9.9a1.145,1.145,0,1,1,1.593-1.643q.985.976,1.961,1.961a1.507,1.507,0,0,1,.12.155l.054-.024v-.2q0-4.482,0-8.964a1.145,1.145,0,0,1,2.288-.105c0,.077,0,.155,0,.233q0,4.42,0,8.839Z" data-name="Caminho 32" transform="translate(-77.835 -0.001)"/></g></svg>