<svg xmlns="http://www.w3.org/2000/svg" xmlns:xlink="http://www.w3.org/1999/xlink" width="19" height="13.96" viewBox="0 0 19 13.96"><defs><clipPath id="clip-path"><rect id="Retângulo_711" width="19" height="13.96" fill="#1a8a98" data-name="Retângulo 711"/></clipPath></defs><g id="Grupo_126" clip-path="url(#clip-path)" data-name="Grupo 126"><path id="Caminho_91" fill="#1a8a98" d="M19,1.967V11.986a.275.275,0,0,0-.027.068A2.266,2.266,0,0,1,16.64,13.96c-4.78-.017-9.56-.006-14.341-.007A2.223,2.223,0,0,1,0,11.661Q0,6.977,0,2.292a2.482,2.482,0,0,1,.056-.551A2.218,2.218,0,0,1,2.3,0Q9.451,0,16.6,0c.08,0,.161,0,.241,0a2.215,2.215,0,0,1,1.7.882A2.564,2.564,0,0,1,19,1.967M1.485,2.682c0,.1,0,.161,0,.22q0,4.351,0,8.7a.764.764,0,0,0,.866.865H16.656a.761.761,0,0,0,.86-.853q0-4.36,0-8.72V2.689c-.09.063-.149.1-.207.147q-3.8,2.828-7.6,5.661a.289.289,0,0,1-.42,0q-2.493-1.869-5-3.724L1.485,2.682m.888-1.189L9.5,6.794l7.127-5.3Z" data-name="Caminho 91" transform="translate(0 0)"/></g></svg>