<svg xmlns="http://www.w3.org/2000/svg" xmlns:xlink="http://www.w3.org/1999/xlink" id="Grupo_130" width="20.785" height="20.771" data-name="Grupo 130" viewBox="0 0 20.785 20.771"><defs><clipPath id="clip-path"><rect id="Retângulo_713" width="20.785" height="20.771" fill="#1a8a98" data-name="Retângulo 713"/></clipPath></defs><g id="Grupo_129" clip-path="url(#clip-path)" data-name="Grupo 129"><path id="Caminho_93" fill="#1a8a98" d="M20.339,20.772H.447L0,20.325V20c.25-.587.784-.42,1.259-.451v-.272q0-9.272,0-18.544c0-.6.374-.871.93-.663q4.771,1.785,9.54,3.575a.651.651,0,0,1,.491.724c0,.575.009,1.15,0,1.724a.266.266,0,0,0,.22.311q3.26,1.076,6.516,2.167a.681.681,0,0,1,.577.8q0,4.961,0,9.921v.259c.234,0,.449-.007.663,0a.6.6,0,0,1,.264,1.143c-.039.022-.077.048-.116.072M11,19.544v-.165q0-7.263,0-14.526a.217.217,0,0,0-.169-.244q-4-1.494-8-3l-.345-.127V19.541H3.694v-.232q0-1.349,0-2.7a.626.626,0,0,1,.711-.71H9.072a.626.626,0,0,1,.711.709q0,1.359,0,2.719v.216Zm7.307,0V19.39q0-4.788.005-9.576c0-.169-.084-.2-.2-.24L12.421,7.68c-.061-.02-.124-.036-.188-.055V19.538h1.2c0-.989,0-1.963,0-2.936a.623.623,0,0,1,.7-.7q1.116,0,2.232,0a.63.63,0,0,1,.722.719q0,1.349,0,2.7v.226ZM4.926,19.538H6.12v-2.41H4.926Zm2.431,0H8.55V17.129H7.357Zm7.31,0h1.192V17.128H14.667Z" data-name="Caminho 93" transform="translate(0 0)"/><path id="Caminho_94" fill="#1a8a98" d="M73.919,122.323c-.2,0-.393,0-.589,0a.607.607,0,1,1,0-1.214q.6-.011,1.2,0a.607.607,0,1,1,0,1.214c-.2.006-.406,0-.609,0" data-name="Caminho 94" transform="translate(-69.017 -114.947)"/><path id="Caminho_95" fill="#1a8a98" d="M145.8,122.314c-.2,0-.393.005-.588,0a.606.606,0,1,1-.008-1.213c.406-.009.812-.008,1.218,0a.607.607,0,1,1-.012,1.214c-.2.005-.406,0-.609,0" data-name="Caminho 95" transform="translate(-137.246 -114.939)"/><path id="Caminho_96" fill="#1a8a98" d="M73.948,169.051c.2,0,.393-.005.588,0a.609.609,0,0,1,.61.6.6.6,0,0,1-.605.608q-.609.013-1.217,0a.606.606,0,1,1,0-1.213c.209-.007.419,0,.629,0" data-name="Caminho 96" transform="translate(-69.018 -160.456)"/><path id="Caminho_97" fill="#1a8a98" d="M145.8,170.228c-.2,0-.392.005-.588,0a.606.606,0,1,1-.008-1.213c.406-.009.812-.008,1.217,0a.606.606,0,1,1,.008,1.213c-.209.008-.419,0-.629,0" data-name="Caminho 97" transform="translate(-137.246 -160.417)"/><path id="Caminho_98" fill="#1a8a98" d="M73.931,216.965c.2,0,.406-.006.609,0a.606.606,0,1,1,0,1.213q-.609.012-1.217,0a.606.606,0,1,1,0-1.213c.2-.007.406,0,.609,0" data-name="Caminho 98" transform="translate(-69.018 -205.935)"/><path id="Caminho_99" fill="#1a8a98" d="M145.809,218.142c-.2,0-.406.006-.609,0a.606.606,0,1,1,.007-1.213c.406-.008.812-.008,1.218,0a.606.606,0,1,1-.007,1.213c-.2.007-.406,0-.609,0" data-name="Caminho 99" transform="translate(-137.246 -205.896)"/><path id="Caminho_100" fill="#1a8a98" d="M73.912,266.056c-.2,0-.392.005-.588,0a.606.606,0,1,1,0-1.213q.609-.013,1.217,0a.606.606,0,1,1,0,1.213c-.209.007-.419,0-.629,0" data-name="Caminho 100" transform="translate(-69.018 -251.374)"/><path id="Caminho_101" fill="#1a8a98" d="M145.812,266.056c-.2,0-.406.006-.609,0a.606.606,0,1,1,0-1.213q.609-.012,1.217,0a.606.606,0,1,1,0,1.213c-.2.007-.406,0-.609,0" data-name="Caminho 101" transform="translate(-137.247 -251.375)"/><path id="Caminho_102" fill="#1a8a98" d="M266.247,216.977c.379,0,.758,0,1.136,0a.611.611,0,1,1,0,1.216q-1.157,0-2.314,0a.611.611,0,1,1,0-1.216c.392,0,.785,0,1.177,0" data-name="Caminho 102" transform="translate(-250.962 -205.948)"/><path id="Caminho_103" fill="#1a8a98" d="M266.226,264.891c.386,0,.771,0,1.157,0a.611.611,0,1,1,0,1.216q-1.157,0-2.313,0a.611.611,0,1,1,0-1.216c.385,0,.771,0,1.157,0" data-name="Caminho 103" transform="translate(-250.961 -251.426)"/></g></svg>