<svg xmlns="http://www.w3.org/2000/svg" xmlns:xlink="http://www.w3.org/1999/xlink" width="16.461" height="17.538" viewBox="0 0 16.461 17.538"><defs><clipPath id="clip-path"><rect id="Retângulo_1129" width="16.461" height="17.538" data-name="Retângulo 1129"/></clipPath></defs><g id="Grupo_963" data-name="Grupo 963" transform="translate(-0.986 -1.05)"><g id="Grupo_962" clip-path="url(#clip-path)" data-name="Grupo 962" transform="translate(0.986 1.05)"><path id="Caminho_812" d="M95.123,0a.653.653,0,0,1,.393.672c-.008,2.247,0,4.494,0,6.741,0,.242,0,.242.242.242.622,0,1.243,0,1.865,0a.573.573,0,0,1,.455.983q-1.346,1.539-2.693,3.076-.524.6-1.049,1.2a.575.575,0,0,1-.952,0L89.65,8.651a.585.585,0,0,1-.138-.661.567.567,0,0,1,.582-.335c.633,0,1.266,0,1.9.005.165,0,.212-.047.212-.212,0-2.258,0-4.517-.007-6.775A.653.653,0,0,1,92.59,0Z" data-name="Caminho 812" transform="translate(-85.625)"/><path id="Caminho_813" d="M8.214,286.18q-3.534,0-7.068,0a1.093,1.093,0,0,1-1.115-.854A1.108,1.108,0,0,1,0,285.037c0-1.381,0-2.761,0-4.142,0-.177.055-.222.225-.219.593.009,1.187.01,1.78,0,.18,0,.218.061.217.227-.007.953,0,1.905-.007,2.858,0,.169.054.209.215.209q5.8-.006,11.6,0c.162,0,.215-.042.214-.209-.008-.953,0-1.905-.007-2.858,0-.168.04-.229.218-.226.6.011,1.2.008,1.8,0,.154,0,.206.044.206.2-.005,1.386,0,2.773,0,4.159a1.09,1.09,0,0,1-1.141,1.141q-3.551,0-7.1,0" data-name="Caminho 813" transform="translate(0 -268.642)"/></g></g></svg>