<svg id="Grupo_194" data-name="Grupo 194" xmlns="http://www.w3.org/2000/svg" xmlns:xlink="http://www.w3.org/1999/xlink" width="21.03" height="21.024" viewBox="0 0 21.03 21.024">
  <defs>
    <clipPath id="clip-path">
      <rect id="Retângulo_20" data-name="Retângulo 20" width="21.03" height="21.024" fill="#fff"/>
    </clipPath>
  </defs>
  <g id="Grupo_12" data-name="Grupo 12" clip-path="url(#clip-path)">
    <path id="Caminho_10" data-name="Caminho 10" d="M9.9,0h1.232c.066.012.133.027.2.037.459.066.925.1,1.378.2a10.21,10.21,0,0,1,6.176,3.935,10.2,10.2,0,0,1,1.9,8.549,10.154,10.154,0,0,1-3.876,6.122A10.225,10.225,0,0,1,9.46,20.97a10.165,10.165,0,0,1-5.954-2.633A10.311,10.311,0,0,1,.163,12.323c-.07-.4-.11-.8-.163-1.194V9.9c.017-.148.034-.3.05-.444A10.387,10.387,0,0,1,2.691,3.5,10.312,10.312,0,0,1,8.7.164C9.1.094,9.5.054,9.9,0m2.018,10.536c-.084.07-.152.118-.209.175q-1.736,1.733-3.47,3.467a1.007,1.007,0,0,0-.348.674.879.879,0,0,0,1.546.607q2.136-2.131,4.266-4.268a1.116,1.116,0,0,0,.259-.387.9.9,0,0,0-.281-1Q11.568,7.7,9.465,5.6A1.868,1.868,0,0,0,9.3,5.447a.866.866,0,0,0-1.346.361A.89.89,0,0,0,8.217,6.83q1.759,1.753,3.513,3.512c.052.052.1.107.185.194" fill="#fff"/>
  </g>
</svg>
