<svg xmlns="http://www.w3.org/2000/svg" xmlns:xlink="http://www.w3.org/1999/xlink" id="Ícone" width="33.646" height="33.611" viewBox="0 0 33.646 33.611"><defs><linearGradient id="linear-gradient" x1=".5" x2=".5" y2="1" gradientUnits="objectBoundingBox"><stop offset="0" stop-color="#ffcb64"/><stop offset="1" stop-color="#ffebc3"/></linearGradient><clipPath id="clip-path"><rect id="Retângulo_1054" width="33.646" height="33.611" fill="url(#linear-gradient)" data-name="Retângulo 1054"/></clipPath></defs><g id="Grupo_355" clip-path="url(#clip-path)" data-name="Grupo 355"><path id="Caminho_123" fill="url(#linear-gradient)" d="M20.04,24.175c.767-.942,1.537-1.874,2.292-2.817a2.806,2.806,0,0,1,3.811-.983q2.788,1.16,5.576,2.322a2.7,2.7,0,0,1,1.728,3.562q-.7,2.6-1.412,5.191a2.8,2.8,0,0,1-2.907,2.161,29.508,29.508,0,0,1-12.475-2.893,29.352,29.352,0,0,1-6.638-4.442A29.36,29.36,0,0,1,1.365,13.122a27.039,27.039,0,0,1-1.2-5.9C.087,6.332.04,5.442,0,4.553A2.788,2.788,0,0,1,2.15,1.589q2.7-.753,5.4-1.472A2.6,2.6,0,0,1,10.832,1.71q1.283,3.021,2.526,6.06a2.692,2.692,0,0,1-.86,3.3c-.931.774-1.876,1.532-2.814,2.3-.078.064-.151.134-.243.216a21.573,21.573,0,0,0,10.6,10.595" data-name="Caminho 123" transform="translate(0 0)"/><path id="Caminho_124" fill="url(#linear-gradient)" d="M112.753,15.023a1.684,1.684,0,0,1-.981,1.638,1.458,1.458,0,0,1-1.774-.4,2.6,2.6,0,0,1-.4-1.212,13.713,13.713,0,0,0-1.074-4.706,11.555,11.555,0,0,0-7.334-6.547,22.148,22.148,0,0,0-3.561-.621c-.862-.116-1.414-.449-1.606-1.12A1.559,1.559,0,0,1,97.65.037,15.223,15.223,0,0,1,106.981,3.4a14.973,14.973,0,0,1,5.34,8.549c.227,1,.293,2.046.432,3.07" data-name="Caminho 124" transform="translate(-79.107 -0.029)"/><path id="Caminho_125" fill="url(#linear-gradient)" d="M97.736,35.973a8.87,8.87,0,0,1,7.955,5.431,8.335,8.335,0,0,1,.7,3.365,1.568,1.568,0,0,1-1.46,1.665,1.5,1.5,0,0,1-1.6-1.308,14.316,14.316,0,0,0-.509-2.335A5.642,5.642,0,0,0,97.692,39.1a1.652,1.652,0,0,1-1.657-1.047,1.586,1.586,0,0,1,1.7-2.084" data-name="Caminho 125" transform="translate(-79.099 -29.658)"/><path id="Caminho_126" fill="url(#linear-gradient)" d="M97.9,76.055a2.085,2.085,0,1,1,2.07-2.089,2.048,2.048,0,0,1-2.07,2.089" data-name="Caminho 126" transform="translate(-78.98 -59.266)"/></g></svg>