<svg xmlns="http://www.w3.org/2000/svg" xmlns:xlink="http://www.w3.org/1999/xlink" width="48.216" height="46.399" viewBox="0 0 48.216 46.399">
  <defs>
    <clipPath id="clip-path">
      <rect id="Retângulo_21" data-name="Retângulo 21" width="48.216" height="46.399" fill="#fff"/>
    </clipPath>
  </defs>
  <g id="Grupo_15" data-name="Grupo 15" clip-path="url(#clip-path)">
    <path id="Caminho_11" data-name="Caminho 11" d="M0,316.917H4.447a3.051,3.051,0,0,1-.048.39c-.485,1.941-.984,3.88-1.454,5.825-.075.311-.2.4-.5.39-.814-.02-1.629-.011-2.443-.013Z" transform="translate(0 -277.124)" fill="#fff"/>
    <path id="Caminho_12" data-name="Caminho 12" d="M353.878,323.315h-4.325c.327-1.322.644-2.607.964-3.892.2-.8.4-1.611.621-2.41.036-.127.2-.313.3-.314.813-.014,1.626.011,2.44.024Z" transform="translate(-305.662 -276.929)" fill="#fff"/>
    <path id="Caminho_13" data-name="Caminho 13" d="M83.835,8.549h2.987c-1.311-3.233-.73-5.92,2.295-7.783a5.386,5.386,0,0,1,6.328.585c2.275,1.987,2.638,4.426,1.4,7.195.861,0,1.688.022,2.512-.01a.523.523,0,0,1,.635.478q2.59,10.4,5.206,20.785c.35,1.4.7,2.791,1.064,4.234H77.435l6.4-25.484m4.248,13.088-1.97,1.919,5.572,5.788,5.9-5.7-1.977-2.056-2.358,2.364V15.207H90.414v8.7l-.129.073q-.541-.577-1.083-1.155c-.376-.4-.754-.8-1.119-1.184M91.828,8.545a2.8,2.8,0,0,0,2.877-2.784,2.856,2.856,0,1,0-5.711-.037,2.775,2.775,0,0,0,2.834,2.82" transform="translate(-67.712 0)" fill="#fff"/>
    <path id="Caminho_14" data-name="Caminho 14" d="M288.23,323.216c.388-1.558.766-3.075,1.144-4.592.14-.562.27-1.127.434-1.682.039-.131.194-.322.3-.323,1.486-.021,2.972-.014,4.548-.014l-1.649,6.612Z" transform="translate(-252.039 -276.849)" fill="#fff"/>
    <path id="Caminho_15" data-name="Caminho 15" d="M52.4,316.68l-1.634,6.542H46.04c.349-1.4.692-2.787,1.036-4.168.174-.7.338-1.4.539-2.093.039-.136.221-.328.34-.33,1.427-.021,2.855-.011,4.283-.006a.652.652,0,0,1,.162.055" transform="translate(-40.259 -276.863)" fill="#fff"/>
    <path id="Caminho_16" data-name="Caminho 16" d="M232.669,323.225H228.04a2.15,2.15,0,0,1,.029-.322c.491-1.973.981-3.947,1.487-5.917.037-.145.2-.365.31-.366,1.454-.024,2.908-.016,4.454-.016l-1.652,6.622" transform="translate(-199.406 -276.848)" fill="#fff"/>
    <path id="Caminho_17" data-name="Caminho 17" d="M173.618,316.593c-.546,2.18-1.068,4.276-1.606,6.368a.419.419,0,0,1-.292.26c-1.457.017-2.913.012-4.409.012.488-1.96.963-3.874,1.442-5.787.213-.853.217-.852,1.083-.852h3.783" transform="translate(-146.303 -276.84)" fill="#fff"/>
    <path id="Caminho_18" data-name="Caminho 18" d="M113.345,316.566l-1.643,6.583h-4.643c.069-.291.13-.556.2-.82.445-1.792.9-3.581,1.332-5.375.073-.3.175-.442.522-.435,1.269.024,2.538.009,3.808.011.121,0,.243.021.429.037" transform="translate(-93.616 -276.774)" fill="#fff"/>
  </g>
</svg>
