<svg xmlns="http://www.w3.org/2000/svg" xmlns:xlink="http://www.w3.org/1999/xlink" width="23.5" height="23.503" viewBox="0 0 23.5 23.503"><defs><clipPath id="clip-path"><rect id="Retângulo_5" width="23.5" height="23.503" fill="#1a8a98" stroke="#707070" stroke-width="1.5" data-name="Retângulo 5"/></clipPath></defs><g id="Grupo_127" data-name="Grupo 127" transform="translate(2 2)"><g id="Grupo_1" clip-path="url(#clip-path)" data-name="Grupo 1" transform="translate(-2 -2)"><path id="Caminho_1" fill="none" stroke="#1a8a98" stroke-width="1.5" d="M6.081,10.567a3.48,3.48,0,0,1-.515,1.6,3.58,3.58,0,0,1-.3.479.645.645,0,0,0-.018.886,16.848,16.848,0,0,0,5.206,5.343.365.365,0,0,0,.44.016,5.319,5.319,0,0,1,1.606-.749,2.839,2.839,0,0,1,1.791.2c.876.421,1.751.847,2.617,1.288a1.449,1.449,0,0,1,.653,1.981,5.2,5.2,0,0,1-1.433,1.841,2.788,2.788,0,0,1-2.788.544A19.7,19.7,0,0,1,.129,10.221,2.9,2.9,0,0,1,1.12,7.1a5.354,5.354,0,0,1,1.6-1.026,1.443,1.443,0,0,1,1.927.749c.4.877.791,1.758,1.153,2.651a8.022,8.022,0,0,1,.279,1.091" data-name="Caminho 1" transform="translate(2.437 -3.104)"/></g></g></svg>