<svg xmlns="http://www.w3.org/2000/svg" xmlns:xlink="http://www.w3.org/1999/xlink" width="21.767" height="21.764" viewBox="0 0 21.767 21.764"><defs><clipPath id="clip-path"><rect id="Retângulo_712" width="21.767" height="21.764" fill="#1a8a98" stroke="#1a8a98" stroke-width=".5" data-name="Retângulo 712" transform="translate(-2 -2)"/></clipPath></defs><g id="Grupo_128" clip-path="url(#clip-path)" data-name="Grupo 128" transform="translate(2 2)"><path id="Caminho_92" fill="#1a8a98" stroke="#1a8a98" stroke-width=".5" d="M16.379,17.765a7.356,7.356,0,0,0-2.193-5.284,7.187,7.187,0,0,0-4.361-2.145,7.28,7.28,0,0,0-5.989,1.91,7.323,7.323,0,0,0-2.4,4.724c-.031.263-.029.53-.043.8H0a8.748,8.748,0,0,1,1.646-5.148A8.883,8.883,0,0,1,5.96,9.37a5.139,5.139,0,1,1,5.843,0L12,9.442a8.828,8.828,0,0,1,5.4,5.781,7.806,7.806,0,0,1,.341,1.854,1.427,1.427,0,0,0,.03.167v.521ZM8.868,8.88A3.747,3.747,0,1,0,5.137,5.109,3.758,3.758,0,0,0,8.868,8.88" data-name="Caminho 92" transform="translate(0 0)"/></g></svg>