<svg xmlns="http://www.w3.org/2000/svg" xmlns:xlink="http://www.w3.org/1999/xlink" width="37.337" height="37.5" viewBox="0 0 37.337 37.5">
  <defs>
    <linearGradient id="linear-gradient" x1="0.5" x2="0.5" y2="1" gradientUnits="objectBoundingBox">
      <stop offset="0" stop-color="#ffcb64"/>
      <stop offset="1" stop-color="#ffebc3"/>
    </linearGradient>
    <clipPath id="clip-path">
      <rect id="Retângulo_11" data-name="Retângulo 11" width="37.337" height="37.5" fill="url(#linear-gradient)"/>
    </clipPath>
  </defs>
  <g id="Grupo_931" data-name="Grupo 931" transform="translate(2 -2)">
    <g id="Grupo_3" data-name="Grupo 3" transform="translate(-2 2)" clip-path="url(#clip-path)">
      <path id="Caminho_4" data-name="Caminho 4" d="M0,33.424l1.787-6.538c.162-.592.336-1.182.478-1.779a.74.74,0,0,0-.055-.486A16.063,16.063,0,0,1,.177,15.511,16.225,16.225,0,0,1,7.6,2.749,15.66,15.66,0,0,1,17.592.036,16.174,16.174,0,0,1,30.581,7.553a15.95,15.95,0,0,1,2.635,10.224A16.562,16.562,0,0,1,20.265,32.754,16.374,16.374,0,0,1,9.045,31.286.853.853,0,0,0,8.5,31.22c-2.7.7-5.405,1.407-8.107,2.114-.109.029-.22.051-.39.09M3.977,29.49c.108-.024.162-.034.215-.048,1.5-.393,3.005-.779,4.5-1.187a1.082,1.082,0,0,1,.909.118,13.361,13.361,0,0,0,12.547.83,13.767,13.767,0,0,0-4.78-26.39A13.471,13.471,0,0,0,8.039,5.888a13.433,13.433,0,0,0-5.081,9.919A13.4,13.4,0,0,0,5.168,24.1a.747.747,0,0,1,.1.676c-.437,1.55-.854,3.1-1.293,4.714" transform="translate(2.038 2.038)" fill="url(#linear-gradient)"/>
      <path id="Caminho_5" data-name="Caminho 5" d="M161.347,170.212c.759-.2,1.092.255,1.34.9.37.962.776,1.91,1.184,2.857a.843.843,0,0,1-.076.914c-.334.445-.656.9-1.008,1.331a.638.638,0,0,0-.056.823,11.358,11.358,0,0,0,5.693,4.9.647.647,0,0,0,.834-.2c.413-.516.845-1.018,1.24-1.547a.629.629,0,0,1,.838-.27c1.185.554,2.366,1.117,3.538,1.7a.56.56,0,0,1,.243.415,3.14,3.14,0,0,1-1.424,2.977,4.982,4.982,0,0,1-4.265.544,16.547,16.547,0,0,1-8.937-6.449,10.623,10.623,0,0,1-1.973-3.607,4.719,4.719,0,0,1,.963-4.5,1.846,1.846,0,0,1,1.864-.787" transform="translate(-148.001 -159.222)" fill="url(#linear-gradient)"/>
    </g>
  </g>
</svg>
