<svg xmlns="http://www.w3.org/2000/svg" xmlns:xlink="http://www.w3.org/1999/xlink" width="55.044" height="46.832" viewBox="0 0 55.044 46.832"><defs><linearGradient id="linear-gradient" x1=".5" x2=".5" y2="1" gradientUnits="objectBoundingBox"><stop offset="0" stop-color="#ffcb64"/><stop offset=".468" stop-color="#ffebc3"/><stop offset="1" stop-color="#ffcb64"/></linearGradient></defs><path id="Caminho_821" fill="url(#linear-gradient)" d="M13.468,15.872a10.052,10.052,0,0,1-8.475-4.019A15.412,15.412,0,0,1,1.935,2.242,35.141,35.141,0,0,1,6.566-15.932Q11.2-23.8,22.031-30.96l3.145,4.194a42.565,42.565,0,0,0-10.048,9.349A19.813,19.813,0,0,0,10.847-4.923l2.621-.524q5.068,0,7.863,2.883a10.7,10.7,0,0,1,2.8,7.776,10.7,10.7,0,0,1-2.8,7.776Q18.536,15.872,13.468,15.872Zm31.8,0A10.052,10.052,0,0,1,36.8,11.853a15.412,15.412,0,0,1-3.058-9.611,35.141,35.141,0,0,1,4.631-18.173Q43-23.8,53.834-30.96l3.145,4.194a42.565,42.565,0,0,0-10.048,9.349A19.813,19.813,0,0,0,42.65-4.923l2.621-.524q5.068,0,7.863,2.883a10.7,10.7,0,0,1,2.8,7.776,10.7,10.7,0,0,1-2.8,7.776Q50.339,15.872,45.272,15.872Z" data-name="Caminho 821" transform="translate(-1.935 30.96)"/></svg>