<svg xmlns="http://www.w3.org/2000/svg" width="30" height="26"><path fill-rule="evenodd" fill="#000000" d="M26.947 13.884a3.432 3.432 0 00.911 3.238.564.564 0 01-.401.965 6.254 6.254 0 01-4.328-1.746c-.976.332-2.209.55-3.395.603-.325 4.418-4.509 7.926-9.607 7.926-1.343 0-2.813-.233-3.94-.616A6.252 6.252 0 011.859 26a.566.566 0 01-.401-.965 3.432 3.432 0 00.911-3.238C.943 20.28.16 18.366.16 16.391c0-4.726 4.566-8.221 9.422-8.464C9.905 3.508 14.09 0 19.189 0c5.049 0 9.967 3.567 9.967 8.478 0 1.975-.783 3.889-2.209 5.406zM1.293 16.391c0 1.727.707 3.406 1.992 4.727a.571.571 0 01.139.239 4.566 4.566 0 01-.346 3.364 5.112 5.112 0 002.542-1.505.566.566 0 01.627-.144c1.021.405 2.544.667 3.88.667 4.685 0 8.495-3.296 8.495-7.348 0-4.209-3.972-7.348-8.495-7.348-4.789 0-8.834 3.365-8.834 7.348zM19.189 1.13c-4.471 0-8.146 3.003-8.472 6.8 1.486.079 2.93.46 4.215 1.113h9.127a.566.566 0 110 1.131h-7.387c1.826 1.492 2.895 3.5 3.06 5.638 1.191-.059 2.453-.302 3.337-.653a.566.566 0 01.627.144 5.112 5.112 0 002.542 1.505 4.566 4.566 0 01-.346-3.364.571.571 0 01.139-.239c1.285-1.321 1.993-3 1.993-4.727 0-3.983-4.046-7.348-8.835-7.348zm4.87 5.653h-7.136a.566.566 0 010-1.131h7.136a.566.566 0 110 1.131zm-9.401 0a.566.566 0 110-1.132.566.566 0 010 1.132zm0 12.434H5.257a.565.565 0 110-1.13h9.401a.565.565 0 110 1.13zm0-3.391H7.522a.565.565 0 110-1.13h7.136a.565.565 0 110 1.13zm-9.401 0a.565.565 0 11-.001-1.13.565.565 0 01.001 1.13z"/></svg>