<svg xmlns="http://www.w3.org/2000/svg" width="30" height="31"><path fill-rule="evenodd" fill="#000000" d="M25.38 10.482h-7.341a.516.516 0 01-.507-.525c0-.289.227-.524.507-.524h7.341c.279 0 .506.235.506.524 0 .29-.227.525-.506.525zm0-4.186h-7.341a.517.517 0 01-.507-.525c0-.289.227-.524.507-.524h7.341c.279 0 .506.235.506.524a.517.517 0 01-.506.525zm0 2.093h-7.341a.517.517 0 01-.507-.525c0-.289.227-.524.507-.524h7.341c.279 0 .506.235.506.524a.517.517 0 01-.506.525zm2.858 2.725a.509.509 0 01-.294.262.493.493 0 01-.387-.031.538.538 0 01-.223-.705 6.621 6.621 0 00.676-2.94c0-3.596-2.827-6.521-6.301-6.521s-6.3 2.925-6.3 6.521c0 1.766.671 3.421 1.892 4.657a.542.542 0 01.139.493c-.147.662-.396 1.613-.743 2.384a.158.158 0 00.014.157.154.154 0 00.141.073c.766-.05 1.846-.318 2.643-1.31a.496.496 0 01.525-.171 6.125 6.125 0 001.689.237c1.824 0 3.558-.818 4.756-2.243a.496.496 0 01.715-.052.532.532 0 01.049.74c-1.39 1.655-3.402 2.604-5.52 2.604a7.098 7.098 0 01-1.651-.194c-1.003 1.082-2.261 1.379-3.143 1.436l-.075.002a1.16 1.16 0 01-.967-.532 1.231 1.231 0 01-.094-1.191c.272-.605.48-1.357.609-1.897A7.67 7.67 0 0114.395 7.7c0-4.174 3.281-7.57 7.314-7.57 4.033 0 7.314 3.396 7.315 7.57 0 1.201-.265 2.35-.786 3.414zM15.874 22.32a.533.533 0 01-.175.397.491.491 0 01-.405.122c-.102-.015-2.53-.409-5.181-3.152a14.5 14.5 0 01-1.918-2.425.539.539 0 01.154-.725c.114-.075.25-.1.382-.07s.245.112.318.23c.46.744 1.059 1.501 1.781 2.248 1.255 1.299 2.444 2.007 3.222 2.372.301.141.596.259.88.35.317-1.542 1.597-3.161 1.653-3.231a.5.5 0 01.262-.173c3.437-.937 7.352 1.992 7.517 2.117.11.084.184.213.202.353.074.565.106 1.136.098 1.697-.041 2.571-1.24 4.874-3.289 6.32-1.271.896-2.738 1.37-4.245 1.37-.91 0-1.814-.171-2.689-.51-3.081-1.191-5.911-3.107-8.413-5.696-2.501-2.588-4.353-5.518-5.504-8.708-.877-2.427-.573-5.043.832-7.176 1.397-2.12 3.622-3.361 6.105-3.403.543-.009 1.095.025 1.64.101.136.018.26.095.341.209.121.171 2.951 4.221 2.046 7.78a.518.518 0 01-.168.271c-.068.058-1.659 1.406-3.161 1.719.042.169.098.347.165.531a.53.53 0 01-.294.676.487.487 0 01-.387-.011.515.515 0 01-.266-.293c-.297-.807-.315-1.297-.316-1.351a.536.536 0 01.145-.378.499.499 0 01.362-.157c.253 0 .555-.066.896-.195-.103-1.168-.569-4.839-2.46-7.658-1.547.391-2.899 1.366-3.811 2.75-1.217 1.848-1.48 4.114-.72 6.218 1.101 3.048 2.874 5.852 5.272 8.333 2.398 2.482 5.107 4.318 8.051 5.456 2.033.786 4.223.514 6.008-.745a6.7 6.7 0 002.658-3.945c-2.724-1.956-6.271-2.438-7.399-2.545-.126.353-.189.665-.189.927zm-6.435-9.272a9.94 9.94 0 001.107-.763c.57-2.671-1.349-5.847-1.8-6.546a9.65 9.65 0 00-1.268-.063 6.89 6.89 0 00-.371.017c1.668 2.725 2.181 5.952 2.332 7.355zm14.194 9.749c.01-.131.015-.26.017-.384.007-.433-.014-.874-.061-1.312-.675-.467-3.744-2.453-6.325-1.864-.118.158-.433.595-.738 1.147 1.356.156 4.475.687 7.107 2.413z"/></svg>