<svg xmlns="http://www.w3.org/2000/svg" width="25" height="30"><path fill-rule="evenodd" fill="#000000" d="M21.954 9.996a12.491 12.491 0 012.639 7.699c0 6.785-5.383 12.305-12 12.305s-12-5.52-12-12.305c0-2.808.934-5.521 2.639-7.699l-1.23-1.261a1.79 1.79 0 010-2.486 1.687 1.687 0 012.424 0l1.313 1.347a11.84 11.84 0 014.568-1.981V3.867H9.165a.579.579 0 01-.572-.586V1.758C8.593.788 9.362 0 10.307 0h4.572c.945 0 1.714.788 1.714 1.758v1.523a.579.579 0 01-.572.586h-1.142v1.748a11.84 11.84 0 014.568 1.981l1.313-1.347a1.687 1.687 0 012.424 0 1.79 1.79 0 010 2.486l-1.23 1.261zM3.618 7.077a.563.563 0 00-.808 0 .597.597 0 000 .829l1.181 1.211c.266-.281.545-.548.835-.801L3.618 7.077zM15.45 2.695v-.937a.58.58 0 00-.571-.586h-4.572a.58.58 0 00-.571.586v.937h5.714zm-4 1.172v1.579a11.958 11.958 0 012.286 0V3.867H11.45zm7.711 4.962a10.716 10.716 0 00-4.939-2.142 10.659 10.659 0 00-3.258 0 10.708 10.708 0 00-4.938 2.142c-.576.449-1.111.96-1.591 1.519a11.287 11.287 0 00-2.699 7.347c0 6.139 4.871 11.133 10.857 11.133 5.986 0 10.857-4.994 10.857-11.133 0-2.708-.959-5.317-2.699-7.347a11.13 11.13 0 00-1.59-1.519zm3.215-1.752a.563.563 0 00-.808 0L20.36 8.316c.29.253.569.52.835.801l1.181-1.211a.597.597 0 000-.829zM18.68 23.878l-.028.031a.412.412 0 01-.031.028c-1.617 1.643-3.756 2.547-6.028 2.547-2.273 0-4.412-.904-6.029-2.547l-.03-.028a8.843 8.843 0 01-2.512-6.214 8.843 8.843 0 012.512-6.213l.034-.032a8.558 8.558 0 013.601-2.186.569.569 0 01.709.396.588.588 0 01-.386.728c-1 .303-1.933.826-2.729 1.526l.386.395c.223.229.223.6 0 .829a.566.566 0 01-.809 0l-.386-.396a7.65 7.65 0 00-1.768 4.367h.55c.316 0 .571.263.571.586a.578.578 0 01-.571.586h-.55a7.653 7.653 0 001.768 4.368l.386-.396a.562.562 0 01.809 0 .596.596 0 010 .828l-.387.397a7.266 7.266 0 004.26 1.812v-.563c0-.324.255-.586.571-.586.316 0 .571.262.571.586v.563a7.266 7.266 0 004.26-1.812l-.387-.397a.596.596 0 010-.828.562.562 0 01.809 0l.386.396A7.65 7.65 0 0020 18.281h-.55a.578.578 0 01-.571-.586c0-.323.255-.586.571-.586H20a7.65 7.65 0 00-1.768-4.367l-.386.396a.566.566 0 01-.809 0 .597.597 0 010-.829l.386-.395a7.403 7.403 0 00-2.729-1.526.59.59 0 01-.387-.728.57.57 0 01.71-.396 8.557 8.557 0 013.602 2.187c.011.01.023.02.033.031l.028.032a8.841 8.841 0 012.484 6.181 8.846 8.846 0 01-2.484 6.183zm-6.087-4.425c-.945 0-1.714-.788-1.714-1.758 0-.764.477-1.415 1.143-1.657v-4.202c0-.324.255-.586.571-.586.316 0 .571.262.571.586v4.202a1.757 1.757 0 011.143 1.657c0 .97-.769 1.758-1.714 1.758zm0-2.344a.58.58 0 00-.571.586.58.58 0 00.571.586.58.58 0 00.571-.586.58.58 0 00-.571-.586zm0-7.031a.579.579 0 01-.571-.586.58.58 0 01.571-.586.58.58 0 01.571.586.579.579 0 01-.571.586z"/></svg>