<svg xmlns="http://www.w3.org/2000/svg" xmlns:xlink="http://www.w3.org/1999/xlink" width="107.62" height="33.125" viewBox="0 0 107.62 33.125">
  <defs>
    <linearGradient id="linear-gradient" x1="0.5" x2="0.5" y2="1" gradientUnits="objectBoundingBox">
      <stop offset="0" stop-color="#ffcb64"/>
      <stop offset="0.468" stop-color="#ffebc3"/>
      <stop offset="1" stop-color="#ffcb64"/>
    </linearGradient>
  </defs>
  <g id="logo-3xceler" transform="translate(0 0)">
    <g id="XMLID_224_">
      <path id="XMLID_225_" d="M239.6,241.37a48.507,48.507,0,0,1,6.955-.62c5.441,0,7.334,1.927,6.99,5.683-.207,2.48-1.377,5.75-4.236,5.992l-.035.137c2.719.448,3.89,2.411,3.374,5.855-.55,3.823-2.859,6.818-9.4,6.99a37,37,0,0,1-7.127-.62l.448-3.3a52.184,52.184,0,0,0,6.37.207c3.686-.242,5.063-1.791,5.441-4.029.378-2.1-.309-3.479-3.374-3.511l-4.51-.1.413-3.1h4.373c3.2,0,3.925-1.654,4.166-3.753.242-2.169-.277-2.754-3.788-2.754-1.721,0-4.3.07-6.061.207Z" transform="translate(-236.12 -240.75)" fill="url(#linear-gradient)"/>
    </g>
    <g id="XMLID_221_" transform="translate(35.721 6.853)">
      <path id="XMLID_222_" d="M372.488,281.06a18.22,18.22,0,0,1-6.233,1c-6.027,0-8.161-2.582-7.232-9.022.929-6.405,3.3-8.746,9.229-8.746a16.49,16.49,0,0,1,5.922,1l-.585,2.547c-1.756-.035-3.581-.07-4.716-.07-3.511,0-4.923.9-5.476,5.508-.585,4.615.309,5.337,3.616,5.337a39.373,39.373,0,0,0,5.2-.344Z" transform="translate(-358.814 -264.29)" fill="url(#linear-gradient)"/>
    </g>
    <g id="XMLID_217_" transform="translate(50.849 6.851)">
      <path id="XMLID_218_" d="M425.5,280.948a21.044,21.044,0,0,1-7.162,1.1c-6.128,0-8.2-3.1-7.4-9.3.862-6.577,3.3-8.472,9.538-8.472,5.922,0,7.2,2.239,6.748,5.613-.483,3.409-2.547,4.615-6.783,4.888l-5.337.448c.07,2.859,1.482,3.409,3.788,3.409a59.6,59.6,0,0,0,6.335-.413ZM420.166,272c1.86-.137,2.719-.655,2.961-2.48.172-1.9-.722-1.927-3.168-1.927-3,.035-3.959.894-4.615,4.821Z" transform="translate(-410.775 -264.28)" fill="url(#linear-gradient)"/>
    </g>
    <g id="XMLID_214_" transform="translate(68.242 0.105)">
      <path id="XMLID_215_" d="M474.842,260.049c-.207,1.412.207,1.86,1.689,1.86h1.514l.172,3.133a11.089,11.089,0,0,1-3.546.55c-2.891,0-4.478-1.721-4.1-4.716l2.789-19.765h4.166Z" transform="translate(-470.518 -241.11)" fill="url(#linear-gradient)"/>
    </g>
    <g id="XMLID_210_" transform="translate(76.95 6.851)">
      <path id="XMLID_211_" d="M515.152,280.948a21.044,21.044,0,0,1-7.162,1.1c-6.129,0-8.2-3.1-7.4-9.3.862-6.577,3.3-8.472,9.538-8.472,5.922,0,7.2,2.239,6.749,5.613-.483,3.409-2.547,4.615-6.784,4.888l-5.337.448c.07,2.859,1.482,3.409,3.788,3.409a59.6,59.6,0,0,0,6.335-.413ZM509.816,272c1.86-.137,2.719-.655,2.961-2.48.172-1.9-.722-1.927-3.168-1.927-3,.035-3.96.894-4.615,4.821Z" transform="translate(-500.425 -264.28)" fill="url(#linear-gradient)"/>
    </g>
    <g id="XMLID_207_" transform="translate(93.776 6.853)">
      <path id="XMLID_208_" d="M571.1,268.215H570c-1.72,0-3.409,1.068-6.164,2.824l-1.447,10.606H558.22l2.376-16.872h3.2l-.1,3.581c2.617-2.617,5.165-4.064,7.4-4.064h.964Z" transform="translate(-558.22 -264.29)" fill="url(#linear-gradient)"/>
    </g>
    <g id="XMLID_205_" transform="translate(26.961 7.337)">
      <path id="XMLID_206_" d="M338.626,265.95h-2.993a2.93,2.93,0,0,0-2.125.975l-.006,0-4.44,6.021a1.93,1.93,0,0,0-.186,1.9l.21.46h0l3.415,7.52h4.131l-4.1-8.676Z" transform="translate(-328.726 -265.95)" fill="url(#linear-gradient)"/>
    </g>
    <g id="XMLID_203_" transform="translate(16.045 7.337)">
      <path id="XMLID_204_" d="M301.344,275.52a1.985,1.985,0,0,0,.125-2.038l-.119-.271c-.009-.02-.02-.041-.029-.061l0,0-3.2-7.2h-3.962l3.753,8.161-6.682,8.711H294.5v0a2.93,2.93,0,0,0,2.251-.978h0l4.594-6.321Z" transform="translate(-291.23 -265.95)" fill="url(#linear-gradient)"/>
    </g>
    <g id="XMLID_147_" transform="translate(35.807 27.117)">
      <path id="XMLID_201_" d="M363.946,334.46a.167.167,0,0,1,.175.2l-.413,4.253h-.419l.408-4.1h-.137l-1.654,3.5a.188.188,0,0,1-.2.137h-.425a.167.167,0,0,1-.181-.154l-.69-3.479h-.143l-.737,4.1h-.425l.78-4.274c.026-.122.084-.18.2-.18h.5a.162.162,0,0,1,.169.154l.588,2.911c.038.2.064.4.1.606h.143c.09-.213.18-.419.271-.614l1.383-2.917a.2.2,0,0,1,.2-.143Z" transform="translate(-359.11 -334.294)" fill="url(#linear-gradient)"/>
      <path id="XMLID_198_" d="M379.772,341.941l.058-.7a2.04,2.04,0,0,1-1.459.78c-.769,0-.97-.457-.786-1.665.2-1.369.606-1.622,1.581-1.622a8.973,8.973,0,0,1,1.363.128l-.44,3.08h-.317Zm.312-2.833c-.344-.012-.606-.026-.8-.026-.937,0-1.124.2-1.29,1.3-.143.981-.064,1.272.445,1.272a2.143,2.143,0,0,0,1.395-.775Z" transform="translate(-372.162 -337.321)" fill="url(#linear-gradient)"/>
      <path id="XMLID_196_" d="M391.116,339.127h-.148c-.393,0-.789.271-1.383.737l-.291,2.085h-.413l.445-3.124h.309l-.058.737a2.4,2.4,0,0,1,1.491-.821h.148Z" transform="translate(-380.213 -337.328)" fill="url(#linear-gradient)"/>
      <path id="XMLID_194_" d="M399.372,335.642a2.752,2.752,0,0,1-1.13,1.395c.064.111.128.233.18.349l.646,1.383h-.44l-.7-1.543a8.125,8.125,0,0,1-.839.367l-.169,1.176h-.408l.632-4.519h.413l-.317,2.306a3.927,3.927,0,0,1-.16.69,3.038,3.038,0,0,0,1.872-1.6h.422Z" transform="translate(-385.621 -334.145)" fill="url(#linear-gradient)"/>
      <path id="XMLID_191_" d="M409.185,341.88a4.932,4.932,0,0,1-1.258.154c-1.065,0-1.389-.509-1.22-1.7.181-1.278.632-1.587,1.68-1.587.9,0,1.258.291,1.124.987-.116.573-.434.768-1.135.833l-1.284.122c-.058.806.245.993.917.993a10.124,10.124,0,0,0,1.15-.084Zm-.815-1.628c.466-.052.646-.16.722-.547.122-.556-.207-.606-.742-.606-.769,0-1.06.181-1.226,1.252v.026Z" transform="translate(-392.82 -337.335)" fill="url(#linear-gradient)"/>
      <path id="XMLID_189_" d="M418.05,339.06c-.047.317.07.446.387.446h.515l.02.308a3.632,3.632,0,0,1-.652.064c-.524,0-.748-.291-.678-.789l.291-2.067h-.573l.038-.291.582-.032.137-.949h.4l-.128.949h1.051l-.052.323h-1.051Z" transform="translate(-400.401 -335.208)" fill="url(#linear-gradient)"/>
      <path id="XMLID_186_" d="M424.34,338.95l.44-3.124h.408l-.44,3.124Zm.911-4.44a.113.113,0,0,1,.122.143l-.052.381c-.012.09-.052.122-.143.122h-.186a.114.114,0,0,1-.128-.143l.058-.381c.006-.084.047-.122.143-.122Z" transform="translate(-405.349 -334.329)" fill="url(#linear-gradient)"/>
      <path id="XMLID_184_" d="M429.055,339.535a2.536,2.536,0,0,1,1.549-.795.677.677,0,0,1,.742.871l-.335,2.338H430.6l.317-2.253c.064-.445-.07-.6-.434-.6a2.551,2.551,0,0,0-1.432.748l-.291,2.1h-.413l.445-3.124h.323Z" transform="translate(-408.191 -337.328)" fill="url(#linear-gradient)"/>
      <path id="XMLID_181_" d="M442.213,341.932a1.52,1.52,0,0,1-1.654,1.406,5.417,5.417,0,0,1-1.13-.07l.047-.276c.309.012.626.02,1.071,0A1.175,1.175,0,0,0,441.8,342a2.919,2.919,0,0,1,.233-.847,2.127,2.127,0,0,1-1.563.885c-.71,0-.961-.434-.775-1.665.207-1.374.62-1.622,1.549-1.622a9.177,9.177,0,0,1,1.395.128h.032Zm.009-2.81c-.349-.012-.62-.026-.833-.026-.917,0-1.109.2-1.278,1.3-.143.975-.064,1.272.446,1.272a2.152,2.152,0,0,0,1.4-.78Z" transform="translate(-416.046 -337.335)" fill="url(#linear-gradient)"/>
      <path id="XMLID_178_" d="M456.316,334.332a13.4,13.4,0,0,1,1.479-.052c1.007,0,1.357.341,1.208,1.374-.154,1.1-.55,1.348-1.537,1.348-.419,0-.821-.026-1.092-.052l-.259,1.834h-.425Zm1.141,2.306c.742-.006,1.007-.213,1.124-1.013s-.111-.981-.795-.981c-.451,0-.833.006-1.092.012l-.285,1.983Z" transform="translate(-427.572 -334.166)" fill="url(#linear-gradient)"/>
      <path id="XMLID_174_" d="M469.975,341.88a4.93,4.93,0,0,1-1.258.154c-1.066,0-1.389-.509-1.22-1.7.18-1.278.632-1.587,1.677-1.587.9,0,1.258.291,1.124.987-.117.573-.434.768-1.135.833l-1.284.122c-.058.806.245.993.917.993a10.123,10.123,0,0,0,1.15-.084Zm-.812-1.628c.466-.052.646-.16.722-.547.122-.556-.207-.606-.742-.606-.769,0-1.06.181-1.226,1.252v.026Z" transform="translate(-435.911 -337.335)" fill="url(#linear-gradient)"/>
      <path id="XMLID_171_" d="M480.266,339.127h-.148c-.393,0-.789.271-1.383.737l-.291,2.085h-.413l.445-3.124h.309l-.058.737a2.4,2.4,0,0,1,1.491-.821h.149Z" transform="translate(-443.408 -337.328)" fill="url(#linear-gradient)"/>
      <path id="XMLID_169_" d="M484.927,334.231c-.451,0-.646.143-.71.606l-.079.547h1.06l-.052.323h-1.051l-.451,3.229c-.084.582-.367.891-.949.891-.175,0-.434-.012-.684-.038l.058-.3h.5c.425,0,.606-.143.673-.606l.445-3.171h-.562l.038-.291.568-.032.09-.605a.893.893,0,0,1,.981-.891c.207,0,.606.012.844.038l-.058.3Z" transform="translate(-446.229 -333.89)" fill="url(#linear-gradient)"/>
      <path id="XMLID_164_" d="M495.594,340.405c-.169,1.194-.606,1.622-1.633,1.622s-1.4-.445-1.234-1.66c.16-1.188.594-1.627,1.639-1.627S495.768,339.2,495.594,340.405Zm-2.44,0c-.143.975.058,1.272.806,1.272s1.071-.317,1.214-1.31-.064-1.272-.806-1.272S493.3,339.392,493.154,340.405Z" transform="translate(-453.798 -337.328)" fill="url(#linear-gradient)"/>
      <path id="XMLID_162_" d="M506.156,339.127h-.148c-.393,0-.789.271-1.383.737l-.291,2.085h-.413l.446-3.124h.309l-.058.737a2.4,2.4,0,0,1,1.491-.821h.148Z" transform="translate(-461.76 -337.328)" fill="url(#linear-gradient)"/>
      <path id="XMLID_159_" d="M512.25,339.529a2.183,2.183,0,0,1,1.4-.789.653.653,0,0,1,.742.748,2.076,2.076,0,0,1,1.357-.748c.556,0,.807.323.731.871l-.329,2.338h-.408l.323-2.253c.058-.445-.1-.6-.457-.6s-.664.218-1.258.754l-.3,2.1h-.393l.318-2.253c.058-.419-.07-.6-.457-.6-.361,0-.678.227-1.258.748l-.3,2.1h-.407l.445-3.124h.309Z" transform="translate(-467.176 -337.328)" fill="url(#linear-gradient)"/>
      <path id="XMLID_155_" d="M532.219,341.941l.058-.7a2.041,2.041,0,0,1-1.459.78c-.768,0-.969-.457-.789-1.665.2-1.369.605-1.622,1.581-1.622a8.973,8.973,0,0,1,1.363.128l-.44,3.08h-.314Zm.309-2.833c-.343-.012-.606-.026-.8-.026-.937,0-1.124.2-1.29,1.3-.143.981-.064,1.272.445,1.272a2.142,2.142,0,0,0,1.395-.775Z" transform="translate(-480.224 -337.321)" fill="url(#linear-gradient)"/>
      <path id="XMLID_153_" d="M542.035,339.535a2.537,2.537,0,0,1,1.549-.795.677.677,0,0,1,.742.871l-.335,2.338h-.407l.317-2.253c.064-.445-.07-.6-.434-.6a2.552,2.552,0,0,0-1.432.748l-.291,2.1h-.414l.445-3.124h.323Z" transform="translate(-488.279 -337.328)" fill="url(#linear-gradient)"/>
      <path id="XMLID_151_" d="M555.371,341.884a3.713,3.713,0,0,1-1.028.143c-1.083,0-1.432-.457-1.258-1.66s.614-1.627,1.666-1.627a3.044,3.044,0,0,1,.955.143l-.07.265a6.542,6.542,0,0,0-.821-.052c-.827,0-1.167.265-1.3,1.3s.1,1.272.9,1.272a5.75,5.75,0,0,0,.929-.07Z" transform="translate(-496.582 -337.328)" fill="url(#linear-gradient)"/>
      <path id="XMLID_148_" d="M564.955,341.88a4.931,4.931,0,0,1-1.258.154c-1.065,0-1.389-.509-1.22-1.7.181-1.278.632-1.587,1.677-1.587.9,0,1.258.291,1.124.987-.117.573-.434.768-1.136.833l-1.284.122c-.058.806.245.993.917.993a10.116,10.116,0,0,0,1.15-.084Zm-.815-1.628c.466-.052.646-.16.722-.547.122-.556-.207-.606-.742-.606-.769,0-1.06.181-1.226,1.252v.026Z" transform="translate(-503.239 -337.335)" fill="url(#linear-gradient)"/>
    </g>
  </g>
</svg>
