<svg xmlns="http://www.w3.org/2000/svg" width="53.007" height="16.315" viewBox="0 0 53.007 16.315">
  <g id="logo-3xceler" transform="translate(-236.12 -240.75)">
    <g id="XMLID_224_" transform="translate(236.12 240.75)">
      <path id="XMLID_225_" d="M237.834,241.055a23.893,23.893,0,0,1,3.426-.305c2.68,0,3.612.949,3.443,2.8-.1,1.222-.678,2.832-2.086,2.951l-.017.067c1.339.221,1.916,1.187,1.662,2.884-.271,1.883-1.408,3.358-4.63,3.443a18.222,18.222,0,0,1-3.51-.305l.221-1.628a25.7,25.7,0,0,0,3.138.1c1.815-.119,2.494-.882,2.68-1.985.186-1.034-.152-1.714-1.662-1.729l-2.221-.05.2-1.526h2.154a1.774,1.774,0,0,0,2.052-1.848c.119-1.068-.136-1.357-1.866-1.357-.848,0-2.119.034-2.986.1Z" transform="translate(-236.12 -240.75)" fill="#fff"/>
    </g>
    <g id="XMLID_221_" transform="translate(253.714 244.126)">
      <path id="XMLID_222_" d="M365.549,272.55a8.975,8.975,0,0,1-3.07.492c-2.968,0-4.02-1.272-3.562-4.444.457-3.155,1.628-4.308,4.546-4.308a8.122,8.122,0,0,1,2.917.492l-.288,1.255c-.865-.017-1.764-.034-2.323-.034-1.729,0-2.425.442-2.7,2.713-.288,2.273.152,2.629,1.781,2.629a19.4,19.4,0,0,0,2.561-.169Z" transform="translate(-358.814 -264.29)" fill="#fff"/>
    </g>
    <g id="XMLID_217_" transform="translate(261.165 244.124)">
      <path id="XMLID_218_" d="M418.029,272.49a10.364,10.364,0,0,1-3.528.542c-3.019,0-4.037-1.526-3.647-4.579.424-3.239,1.628-4.173,4.7-4.173,2.917,0,3.545,1.1,3.324,2.765-.238,1.679-1.255,2.273-3.341,2.408l-2.628.221c.034,1.408.73,1.679,1.866,1.679a29.354,29.354,0,0,0,3.12-.2Zm-2.628-4.41c.916-.067,1.339-.323,1.458-1.222.085-.934-.356-.949-1.56-.949-1.476.017-1.95.44-2.273,2.375Z" transform="translate(-410.775 -264.28)" fill="#fff"/>
    </g>
    <g id="XMLID_214_" transform="translate(269.732 240.802)">
      <path id="XMLID_215_" d="M472.647,250.438c-.1.7.1.916.832.916h.746l.085,1.543a5.462,5.462,0,0,1-1.747.271,1.854,1.854,0,0,1-2.018-2.323l1.374-9.735h2.052Z" transform="translate(-470.517 -241.11)" fill="#fff"/>
    </g>
    <g id="XMLID_210_" transform="translate(274.021 244.124)">
      <path id="XMLID_211_" d="M507.679,272.49a10.365,10.365,0,0,1-3.528.542c-3.019,0-4.037-1.526-3.647-4.579.424-3.239,1.628-4.173,4.7-4.173,2.917,0,3.545,1.1,3.324,2.765-.238,1.679-1.255,2.273-3.341,2.408l-2.629.221c.034,1.408.73,1.679,1.866,1.679a29.353,29.353,0,0,0,3.12-.2Zm-2.629-4.41c.916-.067,1.339-.323,1.458-1.222.085-.934-.356-.949-1.56-.949-1.476.017-1.95.44-2.273,2.375Z" transform="translate(-500.425 -264.28)" fill="#fff"/>
    </g>
    <g id="XMLID_207_" transform="translate(282.309 244.126)">
      <path id="XMLID_208_" d="M564.563,266.223h-.542c-.847,0-1.679.526-3.036,1.391l-.713,5.224H558.22l1.17-8.31h1.577l-.05,1.764a5.637,5.637,0,0,1,3.647-2h.475Z" transform="translate(-558.22 -264.29)" fill="#fff"/>
    </g>
    <g id="XMLID_205_" transform="translate(249.4 244.364)">
      <path id="XMLID_206_" d="M333.6,265.95h-1.474a1.443,1.443,0,0,0-1.047.48h0l-2.187,2.966a.951.951,0,0,0-.092.935l.1.227h0l1.682,3.7h2.035l-2.018-4.273Z" transform="translate(-328.726 -265.95)" fill="#fff"/>
    </g>
    <g id="XMLID_203_" transform="translate(244.023 244.364)">
      <path id="XMLID_204_" d="M296.212,270.664a.978.978,0,0,0,.062-1l-.059-.133c0-.01-.01-.02-.014-.03h0l-1.577-3.548h-1.952l1.848,4.02-3.291,4.29h1.609a1.443,1.443,0,0,0,1.108-.482h0l2.263-3.113Z" transform="translate(-291.23 -265.95)" fill="#fff"/>
    </g>
    <g id="XMLID_147_" transform="translate(253.757 254.106)">
      <path id="XMLID_201_" d="M361.492,334.46a.082.082,0,0,1,.086.1l-.2,2.1h-.206l.2-2.019H361.3l-.815,1.724a.092.092,0,0,1-.1.067h-.209a.082.082,0,0,1-.089-.076l-.34-1.714h-.07l-.363,2.019h-.209l.384-2.105c.013-.06.042-.089.1-.089h.245a.08.08,0,0,1,.083.076l.29,1.434c.019.1.032.2.05.3h.07c.044-.1.089-.207.133-.3l.681-1.437a.1.1,0,0,1,.1-.07Z" transform="translate(-359.11 -334.378)" fill="#fff"/>
      <path id="XMLID_198_" d="M378.631,340.312l.029-.347a1,1,0,0,1-.718.384c-.379,0-.478-.225-.387-.82.1-.674.3-.8.779-.8a4.426,4.426,0,0,1,.671.063l-.217,1.517h-.156Zm.153-1.4c-.169-.006-.3-.013-.394-.013-.462,0-.554.1-.635.642-.07.483-.032.627.219.627a1.055,1.055,0,0,0,.687-.381Z" transform="translate(-374.882 -338.036)" fill="#fff"/>
      <path id="XMLID_196_" d="M389.981,338.931h-.073c-.194,0-.389.133-.681.363l-.143,1.027h-.2l.219-1.539h.152l-.029.363a1.181,1.181,0,0,1,.734-.4h.073Z" transform="translate(-384.611 -338.044)" fill="#fff"/>
      <path id="XMLID_194_" d="M397.92,334.935a1.355,1.355,0,0,1-.556.687c.032.054.063.115.089.172l.318.681h-.217l-.347-.76a4,4,0,0,1-.413.181l-.083.579h-.2l.311-2.226h.2l-.156,1.136a1.938,1.938,0,0,1-.079.34,1.5,1.5,0,0,0,.922-.789h.208Z" transform="translate(-391.147 -334.198)" fill="#fff"/>
      <path id="XMLID_191_" d="M407.906,340.292a2.429,2.429,0,0,1-.62.076c-.525,0-.684-.251-.6-.836.089-.629.311-.781.827-.781.442,0,.62.143.554.486-.057.282-.214.379-.559.41l-.632.06c-.029.4.12.489.452.489a4.978,4.978,0,0,0,.566-.042Zm-.4-.8c.229-.026.318-.079.356-.27.06-.274-.1-.3-.366-.3-.379,0-.522.089-.6.617v.013Z" transform="translate(-399.846 -338.053)" fill="#fff"/>
      <path id="XMLID_189_" d="M417.7,337.38c-.023.156.034.219.191.219h.254l.01.152a1.786,1.786,0,0,1-.321.032c-.258,0-.369-.143-.334-.389l.143-1.018h-.282l.019-.143.287-.016.067-.467h.2l-.063.467h.518l-.026.159h-.518Z" transform="translate(-409.007 -335.483)" fill="#fff"/>
      <path id="XMLID_186_" d="M424.34,336.7l.217-1.539h.2l-.217,1.539Zm.449-2.187a.056.056,0,0,1,.06.07l-.026.188c-.006.044-.026.06-.07.06h-.092a.056.056,0,0,1-.063-.07l.029-.188c0-.042.023-.06.07-.06Z" transform="translate(-414.986 -334.421)" fill="#fff"/>
      <path id="XMLID_184_" d="M428.7,339.131a1.249,1.249,0,0,1,.763-.391.333.333,0,0,1,.366.429l-.165,1.151h-.2l.156-1.11c.032-.219-.034-.3-.214-.3a1.256,1.256,0,0,0-.706.369l-.143,1.037h-.2l.219-1.539h.159Z" transform="translate(-418.421 -338.044)" fill="#fff"/>
      <path id="XMLID_181_" d="M440.8,340.317a.749.749,0,0,1-.815.693,2.665,2.665,0,0,1-.556-.034l.023-.136c.152.006.308.01.528,0a.579.579,0,0,0,.617-.489,1.438,1.438,0,0,1,.115-.417,1.048,1.048,0,0,1-.77.436c-.35,0-.473-.214-.381-.82.1-.677.305-.8.763-.8a4.516,4.516,0,0,1,.687.063h.016Zm0-1.384c-.172-.006-.305-.013-.41-.013-.452,0-.546.1-.63.642-.07.48-.032.627.219.627a1.06,1.06,0,0,0,.69-.384Z" transform="translate(-427.912 -338.053)" fill="#fff"/>
      <path id="XMLID_178_" d="M456,334.306a6.607,6.607,0,0,1,.728-.026c.5,0,.668.168.6.677-.076.541-.271.664-.757.664-.207,0-.4-.013-.538-.026l-.128.9h-.209Zm.562,1.136c.366,0,.5-.1.553-.5s-.054-.483-.391-.483c-.222,0-.41,0-.538.006l-.141.977Z" transform="translate(-441.841 -334.224)" fill="#fff"/>
      <path id="XMLID_174_" d="M468.7,340.292a2.428,2.428,0,0,1-.619.076c-.525,0-.684-.251-.6-.836.089-.629.311-.781.826-.781.442,0,.619.143.554.486-.057.282-.214.379-.559.41l-.632.06c-.029.4.12.489.452.489a4.979,4.979,0,0,0,.566-.042Zm-.4-.8c.229-.026.318-.079.356-.27.06-.274-.1-.3-.366-.3-.379,0-.522.089-.6.617v.013Z" transform="translate(-451.918 -338.053)" fill="#fff"/>
      <path id="XMLID_171_" d="M479.131,338.931h-.073c-.194,0-.389.133-.681.363l-.143,1.027h-.2l.219-1.539h.152l-.029.363a1.181,1.181,0,0,1,.734-.4h.073Z" transform="translate(-460.977 -338.044)" fill="#fff"/>
      <path id="XMLID_169_" d="M483.447,334.058c-.222,0-.318.07-.35.3l-.039.27h.522l-.026.159h-.518l-.222,1.59c-.042.287-.181.439-.467.439-.086,0-.214-.006-.337-.019l.029-.149h.245c.209,0,.3-.07.331-.3l.219-1.562h-.277l.019-.143.28-.016.044-.3a.44.44,0,0,1,.483-.439c.1,0,.3.006.416.019l-.029.149Z" transform="translate(-464.386 -333.89)" fill="#fff"/>
      <path id="XMLID_164_" d="M494.119,339.56c-.083.588-.3.8-.8.8s-.69-.219-.608-.817.293-.8.807-.8S494.2,338.967,494.119,339.56Zm-1.2,0c-.07.48.029.627.4.627s.528-.156.6-.645-.032-.627-.4-.627S492.987,339.061,492.917,339.56Z" transform="translate(-473.533 -338.044)" fill="#fff"/>
      <path id="XMLID_162_" d="M505.021,338.931h-.073c-.194,0-.389.133-.681.363l-.143,1.027h-.2l.219-1.539h.152l-.029.363a1.181,1.181,0,0,1,.734-.4h.073Z" transform="translate(-483.154 -338.044)" fill="#fff"/>
      <path id="XMLID_159_" d="M511.9,339.129a1.075,1.075,0,0,1,.69-.389.322.322,0,0,1,.366.369,1.022,1.022,0,0,1,.668-.369c.274,0,.4.159.36.429l-.162,1.151h-.2l.159-1.11c.029-.219-.05-.3-.225-.3s-.327.108-.619.371l-.146,1.034H512.6l.156-1.11c.029-.207-.034-.3-.225-.3s-.334.112-.62.369l-.146,1.037h-.2l.219-1.539h.152Z" transform="translate(-489.699 -338.044)" fill="#fff"/>
      <path id="XMLID_155_" d="M531.076,340.312l.029-.347a1,1,0,0,1-.718.384c-.379,0-.478-.225-.389-.82.1-.674.3-.8.779-.8a4.425,4.425,0,0,1,.671.063l-.217,1.517h-.155Zm.152-1.4c-.169-.006-.3-.013-.394-.013-.462,0-.554.1-.635.642-.07.483-.031.627.219.627a1.055,1.055,0,0,0,.687-.381Z" transform="translate(-505.467 -338.036)" fill="#fff"/>
      <path id="XMLID_153_" d="M541.677,339.131a1.249,1.249,0,0,1,.763-.391.333.333,0,0,1,.366.429l-.165,1.151h-.2l.156-1.11c.032-.219-.034-.3-.214-.3a1.256,1.256,0,0,0-.706.369l-.143,1.037h-.2l.219-1.539h.159Z" transform="translate(-515.2 -338.044)" fill="#fff"/>
      <path id="XMLID_151_" d="M554.19,340.289a1.828,1.828,0,0,1-.506.07c-.533,0-.706-.225-.62-.817s.3-.8.82-.8a1.5,1.5,0,0,1,.47.07l-.034.131a3.221,3.221,0,0,0-.4-.026c-.407,0-.575.131-.642.642s.047.627.442.627a2.835,2.835,0,0,0,.458-.034Z" transform="translate(-525.233 -338.044)" fill="#fff"/>
      <path id="XMLID_148_" d="M563.676,340.292a2.429,2.429,0,0,1-.62.076c-.525,0-.684-.251-.6-.836.089-.629.311-.781.826-.781.442,0,.62.143.554.486-.057.282-.214.379-.559.41l-.632.06c-.029.4.12.489.452.489a4.977,4.977,0,0,0,.566-.042Zm-.4-.8c.229-.026.318-.079.356-.27.06-.274-.1-.3-.366-.3-.379,0-.522.089-.6.617v.013Z" transform="translate(-533.278 -338.053)" fill="#fff"/>
    </g>
  </g>
</svg>
